<?xml version="1.0" encoding="utf-8" standalone="no"?>
<!DOCTYPE svg PUBLIC "-//W3C//DTD SVG 1.1//EN"
  "http://www.w3.org/Graphics/SVG/1.1/DTD/svg11.dtd">
<svg height="184.15625pt" version="1.1" viewBox="0 0 242.465625 184.15625" width="242.465625pt" xmlns="http://www.w3.org/2000/svg" xmlns:xlink="http://www.w3.org/1999/xlink">
 <metadata>
  <rdf:RDF xmlns:cc="http://creativecommons.org/ns#" xmlns:dc="http://purl.org/dc/elements/1.1/" xmlns:rdf="http://www.w3.org/1999/02/22-rdf-syntax-ns#">
   <cc:Work>
    <dc:type rdf:resource="http://purl.org/dc/dcmitype/StillImage"/>
    <dc:date>2023-05-01T19:50:39.456222</dc:date>
    <dc:format>image/svg+xml</dc:format>
    <dc:creator>
     <cc:Agent>
      <dc:title>Matplotlib v3.4.2, https://matplotlib.org/</dc:title>
     </cc:Agent>
    </dc:creator>
   </cc:Work>
  </rdf:RDF>
 </metadata>
 <defs>
  <style type="text/css">*{stroke-linecap:butt;stroke-linejoin:round;}</style>
 </defs>
 <g id="figure_1">
  <g id="patch_1">
   <path d="M 0 184.15625 
L 242.465625 184.15625 
L 242.465625 -0 
L 0 -0 
z
" style="fill:none;"/>
  </g>
  <g id="axes_1">
   <g id="patch_2">
    <path d="M 36.465625 146.6 
L 231.765625 146.6 
L 231.765625 10.7 
L 36.465625 10.7 
z
" style="fill:#ffffff;"/>
   </g>
   <g id="matplotlib.axis_1">
    <g id="xtick_1">
     <g id="line2d_1">
      <path clip-path="url(#p6971f22b0f)" d="M 36.465625 146.6 
L 36.465625 10.7 
" style="fill:none;stroke:#b0b0b0;stroke-linecap:square;stroke-width:0.8;"/>
     </g>
     <g id="line2d_2">
      <defs>
       <path d="M 0 0 
L 0 3.5 
" id="mc3a3bf9904" style="stroke:#000000;stroke-width:0.8;"/>
      </defs>
      <g>
       <use style="stroke:#000000;stroke-width:0.8;" x="36.465625" xlink:href="#mc3a3bf9904" y="146.6"/>
      </g>
     </g>
     <g id="line2d_3">
      <defs>
       <path d="M 0 0 
L 0 -3.5 
" id="m0fd947e0a1" style="stroke:#000000;stroke-width:0.8;"/>
      </defs>
      <g>
       <use style="stroke:#000000;stroke-width:0.8;" x="36.465625" xlink:href="#m0fd947e0a1" y="10.7"/>
      </g>
     </g>
     <g id="text_1">
      <!-- 0 -->
      <g transform="translate(33.284375 161.198437)scale(0.1 -0.1)">
       <defs>
        <path d="M 2034 4250 
Q 1547 4250 1301 3770 
Q 1056 3291 1056 2328 
Q 1056 1369 1301 889 
Q 1547 409 2034 409 
Q 2525 409 2770 889 
Q 3016 1369 3016 2328 
Q 3016 3291 2770 3770 
Q 2525 4250 2034 4250 
z
M 2034 4750 
Q 2819 4750 3233 4129 
Q 3647 3509 3647 2328 
Q 3647 1150 3233 529 
Q 2819 -91 2034 -91 
Q 1250 -91 836 529 
Q 422 1150 422 2328 
Q 422 3509 836 4129 
Q 1250 4750 2034 4750 
z
" id="DejaVuSans-30" transform="scale(0.015625)"/>
       </defs>
       <use xlink:href="#DejaVuSans-30"/>
      </g>
     </g>
    </g>
    <g id="xtick_2">
     <g id="line2d_4">
      <path clip-path="url(#p6971f22b0f)" d="M 70.138039 146.6 
L 70.138039 10.7 
" style="fill:none;stroke:#b0b0b0;stroke-linecap:square;stroke-width:0.8;"/>
     </g>
     <g id="line2d_5">
      <g>
       <use style="stroke:#000000;stroke-width:0.8;" x="70.138039" xlink:href="#mc3a3bf9904" y="146.6"/>
      </g>
     </g>
     <g id="line2d_6">
      <g>
       <use style="stroke:#000000;stroke-width:0.8;" x="70.138039" xlink:href="#m0fd947e0a1" y="10.7"/>
      </g>
     </g>
     <g id="text_2">
      <!-- 25 -->
      <g transform="translate(63.775539 161.198437)scale(0.1 -0.1)">
       <defs>
        <path d="M 1228 531 
L 3431 531 
L 3431 0 
L 469 0 
L 469 531 
Q 828 903 1448 1529 
Q 2069 2156 2228 2338 
Q 2531 2678 2651 2914 
Q 2772 3150 2772 3378 
Q 2772 3750 2511 3984 
Q 2250 4219 1831 4219 
Q 1534 4219 1204 4116 
Q 875 4013 500 3803 
L 500 4441 
Q 881 4594 1212 4672 
Q 1544 4750 1819 4750 
Q 2544 4750 2975 4387 
Q 3406 4025 3406 3419 
Q 3406 3131 3298 2873 
Q 3191 2616 2906 2266 
Q 2828 2175 2409 1742 
Q 1991 1309 1228 531 
z
" id="DejaVuSans-32" transform="scale(0.015625)"/>
        <path d="M 691 4666 
L 3169 4666 
L 3169 4134 
L 1269 4134 
L 1269 2991 
Q 1406 3038 1543 3061 
Q 1681 3084 1819 3084 
Q 2600 3084 3056 2656 
Q 3513 2228 3513 1497 
Q 3513 744 3044 326 
Q 2575 -91 1722 -91 
Q 1428 -91 1123 -41 
Q 819 9 494 109 
L 494 744 
Q 775 591 1075 516 
Q 1375 441 1709 441 
Q 2250 441 2565 725 
Q 2881 1009 2881 1497 
Q 2881 1984 2565 2268 
Q 2250 2553 1709 2553 
Q 1456 2553 1204 2497 
Q 953 2441 691 2322 
L 691 4666 
z
" id="DejaVuSans-35" transform="scale(0.015625)"/>
       </defs>
       <use xlink:href="#DejaVuSans-32"/>
       <use x="63.623047" xlink:href="#DejaVuSans-35"/>
      </g>
     </g>
    </g>
    <g id="xtick_3">
     <g id="line2d_7">
      <path clip-path="url(#p6971f22b0f)" d="M 103.810453 146.6 
L 103.810453 10.7 
" style="fill:none;stroke:#b0b0b0;stroke-linecap:square;stroke-width:0.8;"/>
     </g>
     <g id="line2d_8">
      <g>
       <use style="stroke:#000000;stroke-width:0.8;" x="103.810453" xlink:href="#mc3a3bf9904" y="146.6"/>
      </g>
     </g>
     <g id="line2d_9">
      <g>
       <use style="stroke:#000000;stroke-width:0.8;" x="103.810453" xlink:href="#m0fd947e0a1" y="10.7"/>
      </g>
     </g>
     <g id="text_3">
      <!-- 50 -->
      <g transform="translate(97.447953 161.198437)scale(0.1 -0.1)">
       <use xlink:href="#DejaVuSans-35"/>
       <use x="63.623047" xlink:href="#DejaVuSans-30"/>
      </g>
     </g>
    </g>
    <g id="xtick_4">
     <g id="line2d_10">
      <path clip-path="url(#p6971f22b0f)" d="M 137.482866 146.6 
L 137.482866 10.7 
" style="fill:none;stroke:#b0b0b0;stroke-linecap:square;stroke-width:0.8;"/>
     </g>
     <g id="line2d_11">
      <g>
       <use style="stroke:#000000;stroke-width:0.8;" x="137.482866" xlink:href="#mc3a3bf9904" y="146.6"/>
      </g>
     </g>
     <g id="line2d_12">
      <g>
       <use style="stroke:#000000;stroke-width:0.8;" x="137.482866" xlink:href="#m0fd947e0a1" y="10.7"/>
      </g>
     </g>
     <g id="text_4">
      <!-- 75 -->
      <g transform="translate(131.120366 161.198437)scale(0.1 -0.1)">
       <defs>
        <path d="M 525 4666 
L 3525 4666 
L 3525 4397 
L 1831 0 
L 1172 0 
L 2766 4134 
L 525 4134 
L 525 4666 
z
" id="DejaVuSans-37" transform="scale(0.015625)"/>
       </defs>
       <use xlink:href="#DejaVuSans-37"/>
       <use x="63.623047" xlink:href="#DejaVuSans-35"/>
      </g>
     </g>
    </g>
    <g id="xtick_5">
     <g id="line2d_13">
      <path clip-path="url(#p6971f22b0f)" d="M 171.15528 146.6 
L 171.15528 10.7 
" style="fill:none;stroke:#b0b0b0;stroke-linecap:square;stroke-width:0.8;"/>
     </g>
     <g id="line2d_14">
      <g>
       <use style="stroke:#000000;stroke-width:0.8;" x="171.15528" xlink:href="#mc3a3bf9904" y="146.6"/>
      </g>
     </g>
     <g id="line2d_15">
      <g>
       <use style="stroke:#000000;stroke-width:0.8;" x="171.15528" xlink:href="#m0fd947e0a1" y="10.7"/>
      </g>
     </g>
     <g id="text_5">
      <!-- 100 -->
      <g transform="translate(161.61153 161.198437)scale(0.1 -0.1)">
       <defs>
        <path d="M 794 531 
L 1825 531 
L 1825 4091 
L 703 3866 
L 703 4441 
L 1819 4666 
L 2450 4666 
L 2450 531 
L 3481 531 
L 3481 0 
L 794 0 
L 794 531 
z
" id="DejaVuSans-31" transform="scale(0.015625)"/>
       </defs>
       <use xlink:href="#DejaVuSans-31"/>
       <use x="63.623047" xlink:href="#DejaVuSans-30"/>
       <use x="127.246094" xlink:href="#DejaVuSans-30"/>
      </g>
     </g>
    </g>
    <g id="xtick_6">
     <g id="line2d_16">
      <path clip-path="url(#p6971f22b0f)" d="M 204.827694 146.6 
L 204.827694 10.7 
" style="fill:none;stroke:#b0b0b0;stroke-linecap:square;stroke-width:0.8;"/>
     </g>
     <g id="line2d_17">
      <g>
       <use style="stroke:#000000;stroke-width:0.8;" x="204.827694" xlink:href="#mc3a3bf9904" y="146.6"/>
      </g>
     </g>
     <g id="line2d_18">
      <g>
       <use style="stroke:#000000;stroke-width:0.8;" x="204.827694" xlink:href="#m0fd947e0a1" y="10.7"/>
      </g>
     </g>
     <g id="text_6">
      <!-- 125 -->
      <g transform="translate(195.283944 161.198437)scale(0.1 -0.1)">
       <use xlink:href="#DejaVuSans-31"/>
       <use x="63.623047" xlink:href="#DejaVuSans-32"/>
       <use x="127.246094" xlink:href="#DejaVuSans-35"/>
      </g>
     </g>
    </g>
    <g id="text_7">
     <!-- epoch -->
     <g transform="translate(118.8875 174.876562)scale(0.1 -0.1)">
      <defs>
       <path d="M 3597 1894 
L 3597 1613 
L 953 1613 
Q 991 1019 1311 708 
Q 1631 397 2203 397 
Q 2534 397 2845 478 
Q 3156 559 3463 722 
L 3463 178 
Q 3153 47 2828 -22 
Q 2503 -91 2169 -91 
Q 1331 -91 842 396 
Q 353 884 353 1716 
Q 353 2575 817 3079 
Q 1281 3584 2069 3584 
Q 2775 3584 3186 3129 
Q 3597 2675 3597 1894 
z
M 3022 2063 
Q 3016 2534 2758 2815 
Q 2500 3097 2075 3097 
Q 1594 3097 1305 2825 
Q 1016 2553 972 2059 
L 3022 2063 
z
" id="DejaVuSans-65" transform="scale(0.015625)"/>
       <path d="M 1159 525 
L 1159 -1331 
L 581 -1331 
L 581 3500 
L 1159 3500 
L 1159 2969 
Q 1341 3281 1617 3432 
Q 1894 3584 2278 3584 
Q 2916 3584 3314 3078 
Q 3713 2572 3713 1747 
Q 3713 922 3314 415 
Q 2916 -91 2278 -91 
Q 1894 -91 1617 61 
Q 1341 213 1159 525 
z
M 3116 1747 
Q 3116 2381 2855 2742 
Q 2594 3103 2138 3103 
Q 1681 3103 1420 2742 
Q 1159 2381 1159 1747 
Q 1159 1113 1420 752 
Q 1681 391 2138 391 
Q 2594 391 2855 752 
Q 3116 1113 3116 1747 
z
" id="DejaVuSans-70" transform="scale(0.015625)"/>
       <path d="M 1959 3097 
Q 1497 3097 1228 2736 
Q 959 2375 959 1747 
Q 959 1119 1226 758 
Q 1494 397 1959 397 
Q 2419 397 2687 759 
Q 2956 1122 2956 1747 
Q 2956 2369 2687 2733 
Q 2419 3097 1959 3097 
z
M 1959 3584 
Q 2709 3584 3137 3096 
Q 3566 2609 3566 1747 
Q 3566 888 3137 398 
Q 2709 -91 1959 -91 
Q 1206 -91 779 398 
Q 353 888 353 1747 
Q 353 2609 779 3096 
Q 1206 3584 1959 3584 
z
" id="DejaVuSans-6f" transform="scale(0.015625)"/>
       <path d="M 3122 3366 
L 3122 2828 
Q 2878 2963 2633 3030 
Q 2388 3097 2138 3097 
Q 1578 3097 1268 2742 
Q 959 2388 959 1747 
Q 959 1106 1268 751 
Q 1578 397 2138 397 
Q 2388 397 2633 464 
Q 2878 531 3122 666 
L 3122 134 
Q 2881 22 2623 -34 
Q 2366 -91 2075 -91 
Q 1284 -91 818 406 
Q 353 903 353 1747 
Q 353 2603 823 3093 
Q 1294 3584 2113 3584 
Q 2378 3584 2631 3529 
Q 2884 3475 3122 3366 
z
" id="DejaVuSans-63" transform="scale(0.015625)"/>
       <path d="M 3513 2113 
L 3513 0 
L 2938 0 
L 2938 2094 
Q 2938 2591 2744 2837 
Q 2550 3084 2163 3084 
Q 1697 3084 1428 2787 
Q 1159 2491 1159 1978 
L 1159 0 
L 581 0 
L 581 4863 
L 1159 4863 
L 1159 2956 
Q 1366 3272 1645 3428 
Q 1925 3584 2291 3584 
Q 2894 3584 3203 3211 
Q 3513 2838 3513 2113 
z
" id="DejaVuSans-68" transform="scale(0.015625)"/>
      </defs>
      <use xlink:href="#DejaVuSans-65"/>
      <use x="61.523438" xlink:href="#DejaVuSans-70"/>
      <use x="125" xlink:href="#DejaVuSans-6f"/>
      <use x="186.181641" xlink:href="#DejaVuSans-63"/>
      <use x="241.162109" xlink:href="#DejaVuSans-68"/>
     </g>
    </g>
   </g>
   <g id="matplotlib.axis_2">
    <g id="ytick_1">
     <g id="line2d_19">
      <path clip-path="url(#p6971f22b0f)" d="M 36.465625 121.503276 
L 231.765625 121.503276 
" style="fill:none;stroke:#b0b0b0;stroke-linecap:square;stroke-width:0.8;"/>
     </g>
     <g id="line2d_20">
      <defs>
       <path d="M 0 0 
L -3.5 0 
" id="m7d8b5f1ce1" style="stroke:#000000;stroke-width:0.8;"/>
      </defs>
      <g>
       <use style="stroke:#000000;stroke-width:0.8;" x="36.465625" xlink:href="#m7d8b5f1ce1" y="121.503276"/>
      </g>
     </g>
     <g id="line2d_21">
      <defs>
       <path d="M 0 0 
L 3.5 0 
" id="ma164b37a50" style="stroke:#000000;stroke-width:0.8;"/>
      </defs>
      <g>
       <use style="stroke:#000000;stroke-width:0.8;" x="231.765625" xlink:href="#ma164b37a50" y="121.503276"/>
      </g>
     </g>
     <g id="text_8">
      <!-- 2.5 -->
      <g transform="translate(13.5625 125.302495)scale(0.1 -0.1)">
       <defs>
        <path d="M 684 794 
L 1344 794 
L 1344 0 
L 684 0 
L 684 794 
z
" id="DejaVuSans-2e" transform="scale(0.015625)"/>
       </defs>
       <use xlink:href="#DejaVuSans-32"/>
       <use x="63.623047" xlink:href="#DejaVuSans-2e"/>
       <use x="95.410156" xlink:href="#DejaVuSans-35"/>
      </g>
     </g>
    </g>
    <g id="ytick_2">
     <g id="line2d_22">
      <path clip-path="url(#p6971f22b0f)" d="M 36.465625 96.376957 
L 231.765625 96.376957 
" style="fill:none;stroke:#b0b0b0;stroke-linecap:square;stroke-width:0.8;"/>
     </g>
     <g id="line2d_23">
      <g>
       <use style="stroke:#000000;stroke-width:0.8;" x="36.465625" xlink:href="#m7d8b5f1ce1" y="96.376957"/>
      </g>
     </g>
     <g id="line2d_24">
      <g>
       <use style="stroke:#000000;stroke-width:0.8;" x="231.765625" xlink:href="#ma164b37a50" y="96.376957"/>
      </g>
     </g>
     <g id="text_9">
      <!-- 5.0 -->
      <g transform="translate(13.5625 100.176175)scale(0.1 -0.1)">
       <use xlink:href="#DejaVuSans-35"/>
       <use x="63.623047" xlink:href="#DejaVuSans-2e"/>
       <use x="95.410156" xlink:href="#DejaVuSans-30"/>
      </g>
     </g>
    </g>
    <g id="ytick_3">
     <g id="line2d_25">
      <path clip-path="url(#p6971f22b0f)" d="M 36.465625 71.250637 
L 231.765625 71.250637 
" style="fill:none;stroke:#b0b0b0;stroke-linecap:square;stroke-width:0.8;"/>
     </g>
     <g id="line2d_26">
      <g>
       <use style="stroke:#000000;stroke-width:0.8;" x="36.465625" xlink:href="#m7d8b5f1ce1" y="71.250637"/>
      </g>
     </g>
     <g id="line2d_27">
      <g>
       <use style="stroke:#000000;stroke-width:0.8;" x="231.765625" xlink:href="#ma164b37a50" y="71.250637"/>
      </g>
     </g>
     <g id="text_10">
      <!-- 7.5 -->
      <g transform="translate(13.5625 75.049856)scale(0.1 -0.1)">
       <use xlink:href="#DejaVuSans-37"/>
       <use x="63.623047" xlink:href="#DejaVuSans-2e"/>
       <use x="95.410156" xlink:href="#DejaVuSans-35"/>
      </g>
     </g>
    </g>
    <g id="ytick_4">
     <g id="line2d_28">
      <path clip-path="url(#p6971f22b0f)" d="M 36.465625 46.124317 
L 231.765625 46.124317 
" style="fill:none;stroke:#b0b0b0;stroke-linecap:square;stroke-width:0.8;"/>
     </g>
     <g id="line2d_29">
      <g>
       <use style="stroke:#000000;stroke-width:0.8;" x="36.465625" xlink:href="#m7d8b5f1ce1" y="46.124317"/>
      </g>
     </g>
     <g id="line2d_30">
      <g>
       <use style="stroke:#000000;stroke-width:0.8;" x="231.765625" xlink:href="#ma164b37a50" y="46.124317"/>
      </g>
     </g>
     <g id="text_11">
      <!-- 10.0 -->
      <g transform="translate(7.2 49.923536)scale(0.1 -0.1)">
       <use xlink:href="#DejaVuSans-31"/>
       <use x="63.623047" xlink:href="#DejaVuSans-30"/>
       <use x="127.246094" xlink:href="#DejaVuSans-2e"/>
       <use x="159.033203" xlink:href="#DejaVuSans-30"/>
      </g>
     </g>
    </g>
    <g id="ytick_5">
     <g id="line2d_31">
      <path clip-path="url(#p6971f22b0f)" d="M 36.465625 20.997997 
L 231.765625 20.997997 
" style="fill:none;stroke:#b0b0b0;stroke-linecap:square;stroke-width:0.8;"/>
     </g>
     <g id="line2d_32">
      <g>
       <use style="stroke:#000000;stroke-width:0.8;" x="36.465625" xlink:href="#m7d8b5f1ce1" y="20.997997"/>
      </g>
     </g>
     <g id="line2d_33">
      <g>
       <use style="stroke:#000000;stroke-width:0.8;" x="231.765625" xlink:href="#ma164b37a50" y="20.997997"/>
      </g>
     </g>
     <g id="text_12">
      <!-- 12.5 -->
      <g transform="translate(7.2 24.797216)scale(0.1 -0.1)">
       <use xlink:href="#DejaVuSans-31"/>
       <use x="63.623047" xlink:href="#DejaVuSans-32"/>
       <use x="127.246094" xlink:href="#DejaVuSans-2e"/>
       <use x="159.033203" xlink:href="#DejaVuSans-35"/>
      </g>
     </g>
    </g>
   </g>
   <g id="line2d_34">
    <path clip-path="url(#p6971f22b0f)" d="M 36.735004 16.877273 
L 37.004384 34.931074 
L 37.543142 48.900937 
L 37.812522 52.980916 
L 38.081901 66.839345 
L 38.35128 67.126701 
L 39.428797 70.728009 
L 39.698177 72.265523 
L 40.506315 73.21872 
L 40.775694 75.823161 
L 41.045073 75.303639 
L 41.314453 75.074435 
L 41.853211 75.702329 
L 42.122591 78.314793 
L 42.39197 77.226712 
L 42.661349 77.119159 
L 42.930728 76.659892 
L 43.200108 76.679148 
L 43.469487 78.552571 
L 43.738866 77.468118 
L 44.277625 78.482352 
L 44.547004 78.851362 
L 44.816384 80.194321 
L 45.085763 79.510757 
L 45.355142 80.404964 
L 45.893901 80.960195 
L 46.16328 82.939781 
L 46.432659 82.3694 
L 46.971418 82.643395 
L 47.240797 82.481563 
L 47.510177 85.276908 
L 47.779556 84.980613 
L 48.318315 84.668351 
L 48.587694 84.207929 
L 48.857073 87.366446 
L 49.126453 86.540388 
L 49.395832 86.110677 
L 49.934591 85.86409 
L 50.20397 88.063165 
L 50.473349 87.764235 
L 50.742728 87.831153 
L 51.012108 88.015385 
L 51.281487 87.946421 
L 51.550866 91.177113 
L 51.820246 91.24276 
L 52.359004 90.576147 
L 52.628384 90.627407 
L 52.897763 93.190504 
L 53.167142 92.295051 
L 53.436522 92.301986 
L 53.705901 92.428143 
L 53.97528 92.340929 
L 54.244659 95.130911 
L 55.052797 95.031074 
L 55.322177 94.883855 
L 55.591556 98.999595 
L 55.860935 97.66901 
L 56.130315 97.653286 
L 56.669073 97.214723 
L 56.938453 101.292631 
L 57.207832 100.435422 
L 57.477211 100.252297 
L 57.746591 99.531525 
L 58.01597 99.330452 
L 58.285349 102.264491 
L 58.554728 102.312444 
L 58.824108 102.111817 
L 59.362866 101.412361 
L 59.632246 104.894648 
L 60.709763 103.506813 
L 60.979142 106.554346 
L 61.248522 106.000428 
L 62.056659 105.27598 
L 62.326039 108.080859 
L 62.595418 108.005332 
L 62.864797 107.580171 
L 63.403556 107.245848 
L 63.672935 110.361162 
L 64.211694 109.659777 
L 64.481073 109.433288 
L 64.750453 109.044046 
L 65.019832 111.778145 
L 65.289211 110.980413 
L 65.82797 110.785891 
L 66.097349 110.699754 
L 66.366728 112.961536 
L 66.636108 112.806886 
L 66.905487 112.357214 
L 67.444246 112.435621 
L 67.713625 114.438943 
L 67.983004 114.039338 
L 68.252384 113.873277 
L 68.791142 113.821324 
L 69.060522 117.162645 
L 69.868659 115.921674 
L 70.138039 115.643419 
L 70.676797 116.619163 
L 70.946177 116.41629 
L 71.215556 116.491285 
L 71.484935 116.727925 
L 71.754315 119.467202 
L 72.023694 118.987872 
L 72.293073 118.17086 
L 72.831832 117.694961 
L 73.101211 119.890475 
L 73.370591 119.204511 
L 73.63997 119.573593 
L 74.178728 119.151108 
L 74.448108 120.614351 
L 74.986866 120.256361 
L 75.256246 120.100687 
L 75.525625 120.076794 
L 75.795004 120.465521 
L 76.064384 121.122781 
L 76.333763 120.838157 
L 76.603142 120.774134 
L 76.872522 120.93829 
L 77.141901 122.037509 
L 77.680659 122.633249 
L 78.219418 122.369102 
L 78.488797 124.072321 
L 78.758177 124.580363 
L 79.296935 123.751724 
L 79.566315 123.495286 
L 79.835694 124.30084 
L 80.105073 123.951632 
L 80.374453 123.944839 
L 80.643832 124.2483 
L 80.913211 124.039456 
L 81.182591 124.523605 
L 81.45197 124.63955 
L 81.721349 124.029387 
L 82.260108 124.474226 
L 82.529487 125.850718 
L 82.798866 125.970889 
L 83.607004 125.345671 
L 83.876384 126.40952 
L 84.415142 125.88047 
L 84.684522 125.734386 
L 84.953901 125.821666 
L 85.22328 126.635067 
L 85.492659 126.654697 
L 85.762039 126.82068 
L 86.031418 126.773909 
L 86.300797 126.514566 
L 86.570177 127.679233 
L 86.839556 127.465175 
L 87.108935 126.74357 
L 87.378315 126.869192 
L 87.647694 126.846398 
L 87.917073 127.084342 
L 88.186453 127.571682 
L 88.455832 127.48738 
L 88.994591 127.614638 
L 89.26397 128.103156 
L 89.533349 127.982431 
L 89.802728 128.070487 
L 90.341487 127.998435 
L 90.610866 129.163951 
L 90.880246 128.661798 
L 91.149625 128.471932 
L 91.419004 128.583176 
L 91.688384 128.519691 
L 91.957763 129.248544 
L 92.227142 129.001346 
L 92.496522 129.056508 
L 93.03528 128.753097 
L 93.304659 128.77348 
L 93.574039 129.171864 
L 94.112797 129.152497 
L 94.382177 129.058371 
L 94.651556 129.772668 
L 94.920935 129.776297 
L 95.190315 129.603811 
L 95.459694 129.690308 
L 95.729073 129.525277 
L 95.998453 129.187359 
L 96.537211 129.501159 
L 96.806591 129.682771 
L 97.07597 129.677191 
L 97.345349 130.063338 
L 97.614728 129.72428 
L 97.884108 129.797639 
L 98.153487 130.017623 
L 98.422866 130.039336 
L 98.692246 131.119415 
L 98.961625 130.799787 
L 99.231004 130.673905 
L 99.500384 130.84243 
L 100.308522 130.526482 
L 100.577901 130.780133 
L 101.116659 130.805786 
L 101.386039 131.553586 
L 101.655418 131.319686 
L 101.924797 131.501144 
L 102.463556 131.227006 
L 102.732935 131.762211 
L 103.002315 131.815941 
L 103.810453 131.392557 
L 104.079832 132.07632 
L 104.349211 131.687848 
L 104.88797 131.800631 
L 105.157349 131.698041 
L 105.426728 131.792414 
L 105.696108 131.684753 
L 105.965487 131.975417 
L 106.234866 131.928342 
L 106.504246 131.741954 
L 106.773625 132.531545 
L 107.043004 132.39651 
L 107.312384 132.457687 
L 107.851142 132.114165 
L 108.120522 132.148693 
L 108.389901 132.018269 
L 108.65928 132.378435 
L 109.198039 132.311788 
L 109.467418 133.355166 
L 109.736797 132.706911 
L 110.814315 132.517062 
L 111.622453 132.746829 
L 111.891832 132.714656 
L 112.161211 133.120678 
L 113.238728 133.06855 
L 113.508108 133.42582 
L 114.585625 133.262741 
L 114.855004 133.585438 
L 115.393763 133.677382 
L 115.932522 133.473763 
L 116.201901 133.577759 
L 116.47128 133.469815 
L 116.740659 133.53753 
L 117.010039 133.39595 
L 117.279418 133.418542 
L 117.548797 134.057975 
L 117.818177 134.330199 
L 118.087556 134.062906 
L 119.973211 133.542356 
L 120.242591 133.920567 
L 120.781349 133.751072 
L 121.050728 133.73611 
L 121.320108 133.846084 
L 121.589487 134.399972 
L 121.858866 134.032203 
L 122.128246 133.95493 
L 122.397625 134.204886 
L 122.667004 134.158473 
L 122.936384 134.689085 
L 123.475142 134.538939 
L 123.744522 134.385587 
L 124.28328 134.395675 
L 124.552659 134.592208 
L 125.360797 134.596119 
L 125.630177 134.799132 
L 126.707694 134.630925 
L 126.977073 134.909625 
L 127.515832 134.906296 
L 127.785211 134.901678 
L 128.054591 134.771444 
L 128.32397 135.162928 
L 128.593349 135.110525 
L 128.862728 134.856387 
L 129.401487 134.916027 
L 129.670866 135.167312 
L 129.940246 134.780127 
L 130.748384 134.907542 
L 131.017763 135.687816 
L 131.287142 134.891061 
L 131.556522 135.036128 
L 131.825901 135.052992 
L 132.09528 134.957365 
L 132.364659 135.63416 
L 133.172797 135.213871 
L 133.442177 135.175165 
L 133.711556 135.843747 
L 133.980935 135.404079 
L 134.789073 135.275886 
L 136.13597 135.24897 
L 136.405349 135.763332 
L 136.674728 135.414185 
L 137.213487 135.509069 
L 137.482866 135.517221 
L 137.752246 134.907923 
L 138.021625 135.324684 
L 138.560384 135.602871 
L 139.099142 135.7077 
L 139.368522 135.853614 
L 139.637901 135.660408 
L 139.90728 135.782039 
L 140.176659 135.742623 
L 140.715418 136.094585 
L 141.254177 136.052302 
L 141.523556 135.868666 
L 142.062315 135.858676 
L 142.331694 136.073399 
L 142.601073 135.897762 
L 143.139832 135.887183 
L 143.409211 135.670671 
L 143.94797 136.060119 
L 144.217349 136.121044 
L 144.486728 135.858249 
L 144.756108 135.836354 
L 145.025487 136.097771 
L 145.564246 136.249189 
L 145.833625 136.524227 
L 146.372384 136.222545 
L 146.911142 136.345427 
L 147.71928 136.529693 
L 148.527418 136.097019 
L 148.796797 136.475035 
L 149.335556 136.353031 
L 149.604935 136.354898 
L 149.874315 136.864736 
L 150.143694 136.573883 
L 150.951832 136.472472 
L 151.221211 136.940387 
L 151.490591 136.783655 
L 152.298728 137.239184 
L 152.837487 137.868746 
L 153.645625 137.747913 
L 153.915004 138.333764 
L 154.184384 138.314345 
L 154.453763 138.119512 
L 154.992522 138.081945 
L 155.261901 137.795659 
L 155.53128 138.20706 
L 155.800659 138.388163 
L 156.339418 138.45868 
L 156.608797 138.304052 
L 157.686315 138.44307 
L 157.955694 138.006045 
L 158.494453 138.476402 
L 159.033211 138.362077 
L 159.302591 138.660899 
L 159.57197 138.524492 
L 159.841349 138.56073 
L 160.110728 138.444047 
L 160.380108 138.462813 
L 160.649487 139.241235 
L 161.457625 138.749158 
L 161.727004 138.830552 
L 161.996384 138.749691 
L 162.535142 138.999578 
L 163.073901 139.083497 
L 163.34328 138.784062 
L 163.882039 138.986357 
L 164.151418 138.864582 
L 165.767694 139.055232 
L 166.037073 139.260847 
L 166.575832 138.97965 
L 167.114591 139.019377 
L 167.38397 139.26163 
L 167.653349 139.109858 
L 168.192108 139.237195 
L 168.730866 139.18094 
L 169.269625 139.176909 
L 169.808384 139.125984 
L 170.077763 139.358408 
L 170.347142 139.376145 
L 170.885901 139.118175 
L 171.15528 139.127936 
L 171.424659 139.023073 
L 171.694039 139.363317 
L 171.963418 139.333492 
L 172.232797 139.418297 
L 172.502177 139.351309 
L 172.771556 138.86846 
L 173.310315 139.267879 
L 174.657211 139.287142 
L 174.926591 139.401815 
L 175.465349 139.456464 
L 175.734728 139.196844 
L 176.004108 139.122796 
L 176.273487 139.340701 
L 176.542866 139.41236 
L 176.812246 139.197909 
L 177.351004 139.500868 
L 177.889763 139.482195 
L 178.159142 139.086815 
L 178.697901 139.329437 
L 179.236659 139.439678 
L 179.506039 139.822915 
L 180.044797 139.685356 
L 181.930453 139.798177 
L 182.199832 139.278385 
L 182.738591 139.605551 
L 183.277349 139.628071 
L 183.546728 139.712801 
L 183.816108 139.439515 
L 184.624246 139.518569 
L 184.893625 139.810495 
L 185.163004 139.731777 
L 185.701763 139.769652 
L 185.971142 139.785738 
L 186.240522 139.956804 
L 186.509901 139.692426 
L 186.77928 139.6818 
L 187.048659 139.531821 
L 187.318039 139.539717 
L 187.587418 139.727299 
L 188.126177 139.648244 
L 188.934315 139.473521 
L 189.742453 139.638566 
L 190.011832 139.631285 
L 190.281211 139.91727 
L 190.550591 139.792357 
L 191.358728 139.907805 
L 192.705625 139.680426 
L 193.244384 139.988085 
L 194.052522 139.859017 
L 194.321901 139.890757 
L 194.860659 139.789939 
L 195.399418 139.893567 
L 195.668797 140.422727 
L 195.938177 139.953696 
L 196.746315 139.920687 
L 197.015694 139.191388 
L 197.285073 139.494868 
L 198.63197 139.92036 
L 199.440108 139.859734 
L 200.248246 139.724908 
L 200.787004 139.753784 
L 201.056384 139.522112 
L 201.595142 139.856623 
L 202.133901 139.866851 
L 202.672659 139.752813 
L 203.211418 139.93826 
L 203.480797 139.838609 
L 203.480797 139.838609 
" style="fill:none;stroke:#1f77b4;stroke-linecap:square;stroke-width:1.5;"/>
   </g>
   <g id="line2d_35">
    <path clip-path="url(#p6971f22b0f)" d="M 37.812522 73.193991 
L 39.159418 77.448296 
L 40.506315 79.362229 
L 41.853211 77.993161 
L 43.200108 82.673439 
L 44.547004 82.506245 
L 45.893901 83.008049 
L 47.240797 82.292486 
L 48.587694 85.395008 
L 49.934591 84.720469 
L 51.281487 86.017161 
L 52.628384 77.974197 
L 53.97528 88.319419 
L 55.322177 87.336599 
L 56.669073 88.016928 
L 58.01597 89.013919 
L 59.362866 88.067507 
L 60.709763 87.459732 
L 62.056659 87.755829 
L 63.403556 85.461288 
L 64.750453 88.734901 
L 66.097349 88.076896 
L 67.444246 86.811158 
L 68.791142 87.070085 
L 70.138039 86.518357 
L 71.484935 87.721261 
L 72.831832 87.607095 
L 74.178728 88.404983 
L 75.525625 88.75941 
L 76.872522 88.145073 
L 78.219418 88.225697 
L 79.566315 89.682563 
L 80.913211 88.285119 
L 82.260108 90.161393 
L 83.607004 89.140679 
L 84.953901 88.426032 
L 86.300797 90.205953 
L 87.647694 89.542887 
L 88.994591 90.051856 
L 90.341487 90.518048 
L 91.688384 90.481208 
L 93.03528 91.341288 
L 94.382177 90.767285 
L 95.729073 90.480226 
L 97.07597 90.969024 
L 98.422866 91.275823 
L 99.769763 91.987993 
L 101.116659 91.593784 
L 102.463556 91.808209 
L 103.810453 91.465351 
L 105.157349 91.312198 
L 106.504246 92.370945 
L 107.851142 92.18885 
L 109.198039 92.670426 
L 110.544935 92.632182 
L 111.891832 92.656298 
L 113.238728 92.112866 
L 114.585625 92.527495 
L 115.932522 92.730562 
L 117.279418 92.578415 
L 118.626315 93.281757 
L 119.973211 92.993146 
L 121.320108 91.81903 
L 122.667004 93.217917 
L 124.013901 92.686418 
L 125.360797 92.987476 
L 126.707694 93.569708 
L 128.054591 93.636453 
L 129.401487 93.6588 
L 130.748384 93.348037 
L 132.09528 93.68823 
L 133.442177 93.683294 
L 134.789073 93.183478 
L 136.13597 94.068369 
L 137.482866 93.954495 
L 138.829763 93.514412 
L 140.176659 93.661052 
L 141.523556 92.869107 
L 142.870453 94.100195 
L 144.217349 94.011913 
L 145.564246 94.359846 
L 146.911142 93.881966 
L 148.258039 93.904308 
L 149.604935 93.058946 
L 150.951832 93.535547 
L 152.298728 95.193927 
L 153.645625 95.346773 
L 154.992522 95.522613 
L 156.339418 95.659668 
L 157.686315 94.721888 
L 159.033211 95.704622 
L 160.380108 95.634297 
L 161.727004 95.654488 
L 163.073901 95.830942 
L 164.420797 95.73329 
L 165.767694 95.714183 
L 167.114591 95.809356 
L 168.461487 95.669656 
L 169.808384 95.672177 
L 171.15528 95.289671 
L 172.502177 94.931353 
L 173.849073 95.946507 
L 175.19597 95.408481 
L 176.542866 95.775258 
L 177.889763 95.541707 
L 179.236659 95.78792 
L 180.583556 95.656429 
L 181.930453 95.806169 
L 183.277349 95.907285 
L 184.624246 95.876925 
L 185.971142 95.815884 
L 187.318039 95.839654 
L 188.664935 95.559108 
L 190.011832 95.79068 
L 191.358728 95.762534 
L 192.705625 95.973771 
L 194.052522 95.714465 
L 195.399418 95.704746 
L 196.746315 95.82694 
L 198.093211 95.900456 
L 199.440108 95.960712 
L 200.787004 95.874975 
L 202.133901 95.970282 
L 203.480797 95.924371 
" style="fill:none;stroke:#ff7f0e;stroke-linecap:square;stroke-width:1.5;"/>
   </g>
   <g id="patch_3">
    <path d="M 36.465625 146.6 
L 36.465625 10.7 
" style="fill:none;stroke:#000000;stroke-linecap:square;stroke-linejoin:miter;stroke-width:0.8;"/>
   </g>
   <g id="patch_4">
    <path d="M 231.765625 146.6 
L 231.765625 10.7 
" style="fill:none;stroke:#000000;stroke-linecap:square;stroke-linejoin:miter;stroke-width:0.8;"/>
   </g>
   <g id="patch_5">
    <path d="M 36.465625 146.6 
L 231.765625 146.6 
" style="fill:none;stroke:#000000;stroke-linecap:square;stroke-linejoin:miter;stroke-width:0.8;"/>
   </g>
   <g id="patch_6">
    <path d="M 36.465625 10.7 
L 231.765625 10.7 
" style="fill:none;stroke:#000000;stroke-linecap:square;stroke-linejoin:miter;stroke-width:0.8;"/>
   </g>
   <g id="legend_1">
    <g id="patch_7">
     <path d="M 146.996875 48.05625 
L 224.765625 48.05625 
Q 226.765625 48.05625 226.765625 46.05625 
L 226.765625 17.7 
Q 226.765625 15.7 224.765625 15.7 
L 146.996875 15.7 
Q 144.996875 15.7 144.996875 17.7 
L 144.996875 46.05625 
Q 144.996875 48.05625 146.996875 48.05625 
z
" style="fill:#ffffff;opacity:0.8;stroke:#cccccc;stroke-linejoin:miter;"/>
    </g>
    <g id="line2d_36">
     <path d="M 148.996875 23.798437 
L 168.996875 23.798437 
" style="fill:none;stroke:#1f77b4;stroke-linecap:square;stroke-width:1.5;"/>
    </g>
    <g id="line2d_37"/>
    <g id="text_13">
     <!-- train loss -->
     <g transform="translate(176.996875 27.298437)scale(0.1 -0.1)">
      <defs>
       <path d="M 1172 4494 
L 1172 3500 
L 2356 3500 
L 2356 3053 
L 1172 3053 
L 1172 1153 
Q 1172 725 1289 603 
Q 1406 481 1766 481 
L 2356 481 
L 2356 0 
L 1766 0 
Q 1100 0 847 248 
Q 594 497 594 1153 
L 594 3053 
L 172 3053 
L 172 3500 
L 594 3500 
L 594 4494 
L 1172 4494 
z
" id="DejaVuSans-74" transform="scale(0.015625)"/>
       <path d="M 2631 2963 
Q 2534 3019 2420 3045 
Q 2306 3072 2169 3072 
Q 1681 3072 1420 2755 
Q 1159 2438 1159 1844 
L 1159 0 
L 581 0 
L 581 3500 
L 1159 3500 
L 1159 2956 
Q 1341 3275 1631 3429 
Q 1922 3584 2338 3584 
Q 2397 3584 2469 3576 
Q 2541 3569 2628 3553 
L 2631 2963 
z
" id="DejaVuSans-72" transform="scale(0.015625)"/>
       <path d="M 2194 1759 
Q 1497 1759 1228 1600 
Q 959 1441 959 1056 
Q 959 750 1161 570 
Q 1363 391 1709 391 
Q 2188 391 2477 730 
Q 2766 1069 2766 1631 
L 2766 1759 
L 2194 1759 
z
M 3341 1997 
L 3341 0 
L 2766 0 
L 2766 531 
Q 2569 213 2275 61 
Q 1981 -91 1556 -91 
Q 1019 -91 701 211 
Q 384 513 384 1019 
Q 384 1609 779 1909 
Q 1175 2209 1959 2209 
L 2766 2209 
L 2766 2266 
Q 2766 2663 2505 2880 
Q 2244 3097 1772 3097 
Q 1472 3097 1187 3025 
Q 903 2953 641 2809 
L 641 3341 
Q 956 3463 1253 3523 
Q 1550 3584 1831 3584 
Q 2591 3584 2966 3190 
Q 3341 2797 3341 1997 
z
" id="DejaVuSans-61" transform="scale(0.015625)"/>
       <path d="M 603 3500 
L 1178 3500 
L 1178 0 
L 603 0 
L 603 3500 
z
M 603 4863 
L 1178 4863 
L 1178 4134 
L 603 4134 
L 603 4863 
z
" id="DejaVuSans-69" transform="scale(0.015625)"/>
       <path d="M 3513 2113 
L 3513 0 
L 2938 0 
L 2938 2094 
Q 2938 2591 2744 2837 
Q 2550 3084 2163 3084 
Q 1697 3084 1428 2787 
Q 1159 2491 1159 1978 
L 1159 0 
L 581 0 
L 581 3500 
L 1159 3500 
L 1159 2956 
Q 1366 3272 1645 3428 
Q 1925 3584 2291 3584 
Q 2894 3584 3203 3211 
Q 3513 2838 3513 2113 
z
" id="DejaVuSans-6e" transform="scale(0.015625)"/>
       <path id="DejaVuSans-20" transform="scale(0.015625)"/>
       <path d="M 603 4863 
L 1178 4863 
L 1178 0 
L 603 0 
L 603 4863 
z
" id="DejaVuSans-6c" transform="scale(0.015625)"/>
       <path d="M 2834 3397 
L 2834 2853 
Q 2591 2978 2328 3040 
Q 2066 3103 1784 3103 
Q 1356 3103 1142 2972 
Q 928 2841 928 2578 
Q 928 2378 1081 2264 
Q 1234 2150 1697 2047 
L 1894 2003 
Q 2506 1872 2764 1633 
Q 3022 1394 3022 966 
Q 3022 478 2636 193 
Q 2250 -91 1575 -91 
Q 1294 -91 989 -36 
Q 684 19 347 128 
L 347 722 
Q 666 556 975 473 
Q 1284 391 1588 391 
Q 1994 391 2212 530 
Q 2431 669 2431 922 
Q 2431 1156 2273 1281 
Q 2116 1406 1581 1522 
L 1381 1569 
Q 847 1681 609 1914 
Q 372 2147 372 2553 
Q 372 3047 722 3315 
Q 1072 3584 1716 3584 
Q 2034 3584 2315 3537 
Q 2597 3491 2834 3397 
z
" id="DejaVuSans-73" transform="scale(0.015625)"/>
      </defs>
      <use xlink:href="#DejaVuSans-74"/>
      <use x="39.208984" xlink:href="#DejaVuSans-72"/>
      <use x="80.322266" xlink:href="#DejaVuSans-61"/>
      <use x="141.601562" xlink:href="#DejaVuSans-69"/>
      <use x="169.384766" xlink:href="#DejaVuSans-6e"/>
      <use x="232.763672" xlink:href="#DejaVuSans-20"/>
      <use x="264.550781" xlink:href="#DejaVuSans-6c"/>
      <use x="292.333984" xlink:href="#DejaVuSans-6f"/>
      <use x="353.515625" xlink:href="#DejaVuSans-73"/>
      <use x="405.615234" xlink:href="#DejaVuSans-73"/>
     </g>
    </g>
    <g id="line2d_38">
     <path d="M 148.996875 38.476562 
L 168.996875 38.476562 
" style="fill:none;stroke:#ff7f0e;stroke-linecap:square;stroke-width:1.5;"/>
    </g>
    <g id="line2d_39"/>
    <g id="text_14">
     <!-- test loss -->
     <g transform="translate(176.996875 41.976562)scale(0.1 -0.1)">
      <use xlink:href="#DejaVuSans-74"/>
      <use x="39.208984" xlink:href="#DejaVuSans-65"/>
      <use x="100.732422" xlink:href="#DejaVuSans-73"/>
      <use x="152.832031" xlink:href="#DejaVuSans-74"/>
      <use x="192.041016" xlink:href="#DejaVuSans-20"/>
      <use x="223.828125" xlink:href="#DejaVuSans-6c"/>
      <use x="251.611328" xlink:href="#DejaVuSans-6f"/>
      <use x="312.792969" xlink:href="#DejaVuSans-73"/>
      <use x="364.892578" xlink:href="#DejaVuSans-73"/>
     </g>
    </g>
   </g>
  </g>
 </g>
 <defs>
  <clipPath id="p6971f22b0f">
   <rect height="135.9" width="195.3" x="36.465625" y="10.7"/>
  </clipPath>
 </defs>
</svg>
